<svg width="600" height="400" viewBox="0 0 600 400" xmlns="http://www.w3.org/2000/svg">
  <rect width="600" height="400" fill="#f3f4f6" rx="8" ry="8"/>
  <rect x="20" y="20" width="560" height="50" fill="#ffffff" rx="4" ry="4" stroke="#e5e7eb" stroke-width="1"/>
  <rect x="40" y="35" width="120" height="20" fill="#e5e7eb" rx="4" ry="4"/>
  <rect x="180" y="35" width="80" height="20" fill="#e5e7eb" rx="4" ry="4"/>
  <rect x="280" y="35" width="100" height="20" fill="#e5e7eb" rx="4" ry="4"/>
  
  <rect x="20" y="90" width="270" height="280" fill="#ffffff" rx="4" ry="4" stroke="#e5e7eb" stroke-width="1"/>
  <rect x="40" y="110" width="150" height="20" fill="#e5e7eb" rx="4" ry="4"/>
  <rect x="40" y="150" width="230" height="10" fill="#e5e7eb" rx="2" ry="2"/>
  <rect x="40" y="170" width="200" height="10" fill="#e5e7eb" rx="2" ry="2"/>
  <rect x="40" y="190" width="220" height="10" fill="#e5e7eb" rx="2" ry="2"/>
  
  <rect x="40" y="220" width="230" height="10" fill="#e5e7eb" rx="2" ry="2"/>
  <rect x="40" y="240" width="180" height="10" fill="#e5e7eb" rx="2" ry="2"/>
  <rect x="40" y="260" width="210" height="10" fill="#e5e7eb" rx="2" ry="2"/>
  
  <rect x="40" y="290" width="230" height="10" fill="#e5e7eb" rx="2" ry="2"/>
  <rect x="40" y="310" width="190" height="10" fill="#e5e7eb" rx="2" ry="2"/>
  <rect x="40" y="330" width="220" height="10" fill="#e5e7eb" rx="2" ry="2"/>
  
  <rect x="310" y="90" width="270" height="130" fill="#ffffff" rx="4" ry="4" stroke="#e5e7eb" stroke-width="1"/>
  <rect x="330" y="110" width="150" height="20" fill="#e5e7eb" rx="4" ry="4"/>
  <rect x="330" y="150" width="230" height="50" fill="#eef2ff" rx="4" ry="4"/>
  
  <rect x="310" y="240" width="270" height="130" fill="#ffffff" rx="4" ry="4" stroke="#e5e7eb" stroke-width="1"/>
  <rect x="330" y="260" width="150" height="20" fill="#e5e7eb" rx="4" ry="4"/>
  <circle cx="350" cy="310" r="30" fill="#dbeafe"/>
  <circle cx="420" cy="310" r="30" fill="#dbeafe"/>
  <circle cx="490" cy="310" r="30" fill="#dbeafe"/>
  
  <rect x="340" y="35" width="220" height="20" fill="#3b82f6" rx="4" ry="4"/>
</svg>
